<?xml version="1.0" encoding="UTF-8"?>
<!DOCTYPE svg PUBLIC "-//W3C//DTD SVG 1.0//EN" "http://www.w3.org/TR/2001/REC-SVG-20010904/DTD/svg10.dtd">
<!-- Creator: CorelDRAW 2018 (64 Bit) -->
<svg xmlns="http://www.w3.org/2000/svg" xml:space="preserve" width="589px" height="707px" version="1.0" style="shape-rendering:geometricPrecision; text-rendering:geometricPrecision; image-rendering:optimizeQuality; fill-rule:evenodd; clip-rule:evenodd"
viewBox="0 0 15.07 18.07"
 xmlns:xlink="http://www.w3.org/1999/xlink">
 <defs>
  <style type="text/css">
   <![CDATA[
    .fil0 {fill:none}
    .fil1 {fill:#FFF212}
   ]]>
  </style>
 </defs>
 <g id="Capa_x0020_1">
  <metadata id="CorelCorpID_0Corel-Layer"/>
  <rect class="fil0" width="15.07" height="18.07"/>
  <path class="fil1" d="M0.88 7.56l0.44 0c0.07,0.23 0.19,0.41 0.35,0.55 0.17,0.13 0.37,0.19 0.59,0.19 0.14,0 0.24,-0.03 0.33,-0.09 0.08,-0.05 0.12,-0.13 0.12,-0.22 0,-0.15 -0.18,-0.27 -0.53,-0.36 -0.12,-0.04 -0.21,-0.06 -0.28,-0.08 -0.21,-0.07 -0.37,-0.12 -0.49,-0.17 -0.11,-0.04 -0.2,-0.08 -0.25,-0.12 -0.12,-0.09 -0.21,-0.19 -0.26,-0.3 -0.06,-0.11 -0.09,-0.24 -0.09,-0.38 0,-0.3 0.11,-0.54 0.33,-0.73 0.23,-0.18 0.52,-0.28 0.89,-0.28 0.19,0 0.36,0.02 0.52,0.06 0.17,0.03 0.32,0.09 0.47,0.17l0.09 -0.16 0.43 0 0 1.05 -0.51 0c-0.05,-0.21 -0.14,-0.37 -0.28,-0.48 -0.14,-0.1 -0.32,-0.15 -0.55,-0.15 -0.13,0 -0.24,0.03 -0.33,0.09 -0.09,0.06 -0.13,0.13 -0.13,0.22 0,0.14 0.17,0.24 0.5,0.31 0.08,0.02 0.14,0.03 0.19,0.04 0.46,0.11 0.79,0.24 0.97,0.4 0.19,0.15 0.28,0.37 0.28,0.64 0,0.31 -0.11,0.55 -0.34,0.73 -0.23,0.18 -0.54,0.27 -0.93,0.27 -0.18,0 -0.35,-0.02 -0.51,-0.06 -0.17,-0.04 -0.33,-0.1 -0.49,-0.18l-0.11 0.16 -0.42 0 0 -1.12zm-0.88 -7.56c3.45,0 6.7,2 8.2,5.24 0.01,0.02 0.01,0.04 0.02,0.05 0.02,0.04 0.03,0.08 0.05,0.11 0.02,0.05 0.04,0.1 0.06,0.15l0.02 0.04c0.01,0.02 0.02,0.05 0.03,0.07l1.99 0 0 1.12 -0.48 0c-0.03,-0.14 -0.06,-0.26 -0.1,-0.34 -0.03,-0.08 -0.07,-0.15 -0.12,-0.19 -0.06,-0.06 -0.13,-0.1 -0.21,-0.13 -0.08,-0.02 -0.21,-0.03 -0.4,-0.03l-0.09 0 -0.38 0 0 0.82 0.11 0c0.14,0 0.23,-0.03 0.29,-0.1 0.05,-0.06 0.08,-0.18 0.08,-0.35l0 -0.02 0.38 0 0 1.37 -0.38 0c0,-0.21 -0.03,-0.35 -0.08,-0.41 -0.05,-0.06 -0.14,-0.09 -0.28,-0.09l-0.12 0 0 0.93 0.53 0c0.21,0 0.35,-0.01 0.43,-0.03 0.07,-0.03 0.13,-0.07 0.18,-0.13 0.04,-0.07 0.08,-0.16 0.11,-0.26 0.02,-0.11 0.04,-0.24 0.05,-0.39l0.49 0 0 1.24 -3.17 0 0 -0.43 0.15 0c0.1,0 0.17,-0.01 0.2,-0.03 0.03,-0.03 0.05,-0.09 0.05,-0.2l0 -0.03 0 -1.64c0,-0.11 -0.02,-0.18 -0.05,-0.21 -0.03,-0.03 -0.09,-0.04 -0.2,-0.04l-0.15 0 0 -0.43 0.32 0c-0.01,-0.03 -0.03,-0.05 -0.04,-0.08l0 -0.01c-1.38,-2.99 -4.37,-4.78 -7.49,-4.79l0 -0.78zm8.09 13.05l0.01 -0.03c0.02,-0.05 0.05,-0.09 0.07,-0.13 0.02,-0.04 0.03,-0.08 0.05,-0.13 0.02,-0.02 0.03,-0.04 0.04,-0.07 0.02,-0.06 0.05,-0.11 0.07,-0.17l0.01 -0.03c0.02,-0.03 0.03,-0.06 0.04,-0.09l2 0 0 -1.24 -0.49 0c-0.01,0.15 -0.03,0.28 -0.05,0.39 -0.03,0.1 -0.07,0.19 -0.11,0.26 -0.05,0.06 -0.11,0.1 -0.18,0.13 -0.08,0.02 -0.22,0.03 -0.43,0.03l-0.53 0 0 -0.93 0.12 0c0.14,0 0.23,0.03 0.28,0.09 0.05,0.06 0.08,0.2 0.08,0.41l0.38 0 0 -1.37 -0.38 0 0 0.02c0,0.17 -0.03,0.29 -0.08,0.35 -0.06,0.07 -0.15,0.1 -0.29,0.1l-0.11 0 0 -0.82 0.38 0 0.09 0c0.19,0 0.32,0.01 0.4,0.03 0.08,0.03 0.15,0.07 0.21,0.12 0.05,0.05 0.09,0.12 0.12,0.2 0.04,0.08 0.07,0.2 0.1,0.34l0.48 0 0 -1.12 -3.16 0 0 0.43 0.15 0c0.11,0 0.17,0.01 0.2,0.04 0.03,0.02 0.05,0.1 0.05,0.21l0 1.64 0 0.03c0,0.11 -0.02,0.17 -0.05,0.2 -0.03,0.02 -0.1,0.03 -0.2,0.03l-0.15 0 0 0.43 0.32 0c-0.01,0.02 -0.02,0.04 -0.03,0.06 -0.01,0.02 -0.02,0.04 -0.03,0.06 -1.38,2.96 -4.35,4.75 -7.47,4.76l0 0.79c3.35,-0.01 6.54,-1.9 8.09,-5.02zm-4.15 -1.34l0 -1.64c0,-0.12 -0.01,-0.19 -0.04,-0.21 -0.03,-0.03 -0.1,-0.04 -0.21,-0.04l-0.15 0 0 -0.43 2.07 0c0.37,0 0.64,0.06 0.82,0.19 0.18,0.12 0.27,0.31 0.27,0.56 0,0.17 -0.05,0.31 -0.16,0.43 -0.11,0.11 -0.27,0.19 -0.47,0.23 0.2,0.03 0.34,0.09 0.41,0.19 0.07,0.1 0.11,0.33 0.11,0.69 0,0.1 0.01,0.18 0.03,0.22 0.02,0.04 0.05,0.06 0.09,0.06 0.04,0 0.07,-0.02 0.09,-0.07 0.02,-0.05 0.03,-0.13 0.03,-0.24 0,-0.01 0,-0.02 0,-0.05 -0.01,-0.02 -0.01,-0.04 -0.01,-0.05l0.31 0c0,0.01 0,0.03 0,0.06 0,0.03 0,0.05 0,0.06 0,0.28 -0.06,0.48 -0.17,0.61 -0.12,0.13 -0.3,0.19 -0.56,0.19 -0.27,0 -0.47,-0.06 -0.59,-0.17 -0.13,-0.11 -0.19,-0.29 -0.19,-0.54l0 -0.25c0,-0.21 -0.03,-0.33 -0.08,-0.39 -0.05,-0.05 -0.17,-0.08 -0.33,-0.08l-0.27 0 0 0.67c0,0.12 0.01,0.19 0.04,0.22 0.03,0.03 0.1,0.04 0.2,0.04l0.17 0 0 0.43 -1.81 0 0 -0.43 0.15 0c0.11,0 0.18,-0.01 0.21,-0.04 0.03,-0.03 0.04,-0.1 0.04,-0.22zm0.99 -1.08l0.26 0c0.19,0 0.32,-0.03 0.39,-0.09 0.08,-0.06 0.11,-0.15 0.11,-0.29 0,-0.15 -0.03,-0.26 -0.1,-0.32 -0.07,-0.06 -0.19,-0.09 -0.37,-0.09l-0.29 0 0 0.79zm7.59 -0.87c-0.2,0 -0.35,0.09 -0.44,0.27 -0.1,0.18 -0.14,0.46 -0.14,0.86 0,0.4 0.04,0.69 0.14,0.87 0.09,0.18 0.23,0.27 0.44,0.27 0.2,0 0.35,-0.09 0.44,-0.27 0.09,-0.17 0.14,-0.46 0.14,-0.86 0,-0.4 -0.05,-0.69 -0.14,-0.87 -0.09,-0.18 -0.24,-0.27 -0.44,-0.27zm-1.75 1.14c0,-0.5 0.16,-0.89 0.47,-1.17 0.31,-0.29 0.73,-0.43 1.28,-0.43 0.54,0 0.97,0.14 1.28,0.43 0.3,0.28 0.46,0.67 0.46,1.17 0,0.49 -0.16,0.88 -0.46,1.16 -0.31,0.29 -0.74,0.43 -1.29,0.43 -0.54,0 -0.97,-0.14 -1.27,-0.43 -0.31,-0.28 -0.47,-0.67 -0.47,-1.16zm-5.93 -4.77c-0.16,0 -0.29,0.06 -0.38,0.17 -0.09,0.11 -0.13,0.27 -0.13,0.49l0 0.01 -0.44 0 0 -1.14 3.16 0 0 1.14 -0.44 0 0 -0.01c0,-0.21 -0.04,-0.38 -0.13,-0.49 -0.09,-0.11 -0.22,-0.17 -0.38,-0.17l-0.13 0 0 1.85c0,0.12 0.01,0.19 0.04,0.22 0.03,0.03 0.1,0.04 0.21,0.04l0.25 0 0 0.43 -1.98 0 0 -0.43 0.24 0c0.1,0 0.16,-0.01 0.19,-0.03 0.04,-0.03 0.05,-0.1 0.05,-0.23l0 -1.85 -0.13 0z"/>
 </g>
</svg>
