<?xml version="1.0" encoding="UTF-8"?>
<!DOCTYPE svg PUBLIC "-//W3C//DTD SVG 1.0//EN" "http://www.w3.org/TR/2001/REC-SVG-20010904/DTD/svg10.dtd">
<!-- Creator: CorelDRAW 2018 (64 Bit) -->
<svg xmlns="http://www.w3.org/2000/svg" xml:space="preserve" width="480px" height="576px" version="1.0" style="shape-rendering:geometricPrecision; text-rendering:geometricPrecision; image-rendering:optimizeQuality; fill-rule:evenodd; clip-rule:evenodd"
viewBox="0 0 12.28 14.72"
 xmlns:xlink="http://www.w3.org/1999/xlink">
 <defs>
  <style type="text/css">
   <![CDATA[
    .fil0 {fill:none}
    .fil1 {fill:#FFF212}
   ]]>
  </style>
 </defs>
 <g id="Capa_x0020_1">
  <metadata id="CorelCorpID_0Corel-Layer"/>
  <rect class="fil0" width="12.28" height="14.72"/>
  <path class="fil1" d="M0.72 6.16l0.36 0c0.05,0.19 0.15,0.34 0.28,0.45 0.14,0.1 0.3,0.15 0.48,0.15 0.11,0 0.2,-0.02 0.27,-0.07 0.06,-0.04 0.1,-0.1 0.1,-0.18 0,-0.12 -0.15,-0.22 -0.44,-0.3 -0.09,-0.02 -0.16,-0.04 -0.22,-0.06 -0.17,-0.05 -0.3,-0.1 -0.4,-0.13 -0.09,-0.04 -0.16,-0.07 -0.2,-0.11 -0.1,-0.07 -0.17,-0.15 -0.22,-0.24 -0.05,-0.09 -0.07,-0.19 -0.07,-0.31 0,-0.24 0.09,-0.44 0.27,-0.59 0.18,-0.15 0.43,-0.23 0.73,-0.23 0.15,0 0.29,0.02 0.42,0.05 0.13,0.03 0.26,0.07 0.38,0.13l0.07 -0.12 0.35 0 0 0.85 -0.41 0c-0.04,-0.17 -0.12,-0.3 -0.23,-0.39 -0.11,-0.08 -0.26,-0.12 -0.45,-0.12 -0.11,0 -0.2,0.02 -0.27,0.07 -0.07,0.05 -0.1,0.11 -0.1,0.18 0,0.11 0.13,0.2 0.41,0.25 0.06,0.02 0.11,0.03 0.15,0.04 0.38,0.08 0.64,0.19 0.79,0.32 0.16,0.13 0.23,0.3 0.23,0.53 0,0.24 -0.09,0.44 -0.28,0.59 -0.18,0.14 -0.44,0.22 -0.75,0.22 -0.15,0 -0.29,-0.02 -0.42,-0.05 -0.14,-0.03 -0.27,-0.08 -0.4,-0.15l-0.09 0.14 -0.34 0 0 -0.92zm-0.72 -6.16c2.81,0 5.46,1.63 6.68,4.27 0.01,0.01 0.01,0.03 0.02,0.04 0.01,0.03 0.03,0.06 0.04,0.09 0.02,0.04 0.03,0.08 0.05,0.12l0.01 0.03c0.01,0.02 0.02,0.04 0.03,0.06l1.62 0 0 0.92 -0.39 0c-0.02,-0.12 -0.05,-0.21 -0.08,-0.28 -0.03,-0.07 -0.06,-0.12 -0.1,-0.16 -0.05,-0.05 -0.1,-0.08 -0.17,-0.1 -0.07,-0.02 -0.18,-0.03 -0.32,-0.03l-0.08 0 -0.31 0 0 0.67 0.09 0c0.11,0 0.19,-0.02 0.24,-0.08 0.04,-0.05 0.06,-0.15 0.06,-0.28l0 -0.02 0.31 0 0 1.11 -0.31 0c0,-0.17 -0.02,-0.28 -0.06,-0.33 -0.04,-0.05 -0.12,-0.08 -0.23,-0.08l-0.1 0 0 0.77 0.43 0c0.17,0 0.29,-0.01 0.35,-0.03 0.06,-0.02 0.11,-0.06 0.15,-0.11 0.03,-0.05 0.07,-0.13 0.09,-0.21 0.02,-0.08 0.03,-0.19 0.04,-0.32l0.4 0 0 1.01 -2.58 0 0 -0.34 0.12 0c0.08,0 0.14,-0.01 0.16,-0.03 0.03,-0.02 0.04,-0.08 0.04,-0.17l0 -0.01 0 -1.34c0,-0.1 -0.01,-0.15 -0.04,-0.18 -0.02,-0.02 -0.08,-0.03 -0.16,-0.03l-0.12 0 0 -0.35 0.26 0c-0.01,-0.02 -0.02,-0.04 -0.04,-0.07l0 0c-1.12,-2.43 -3.56,-3.89 -6.1,-3.9l0 -0.64zm6.59 10.63l0.01 -0.02c0.02,-0.04 0.04,-0.07 0.05,-0.1 0.02,-0.04 0.04,-0.07 0.05,-0.11 0.01,-0.02 0.02,-0.04 0.03,-0.06 0.02,-0.04 0.04,-0.09 0.06,-0.14l0.01 -0.02c0.01,-0.03 0.02,-0.05 0.03,-0.08l1.63 0 0 -1.01 -0.4 0c-0.01,0.13 -0.02,0.24 -0.04,0.32 -0.02,0.08 -0.06,0.15 -0.09,0.21 -0.04,0.05 -0.09,0.09 -0.15,0.11 -0.06,0.02 -0.18,0.03 -0.35,0.03l-0.43 0 0 -0.77 0.1 0c0.11,0 0.19,0.03 0.23,0.08 0.04,0.05 0.06,0.16 0.06,0.33l0.31 0 0 -1.11 -0.31 0 0 0.02c0,0.13 -0.02,0.23 -0.06,0.28 -0.05,0.06 -0.13,0.08 -0.24,0.08l-0.09 0 0 -0.67 0.31 0 0.08 0c0.14,0 0.25,0.01 0.32,0.03 0.07,0.02 0.12,0.05 0.17,0.1 0.04,0.04 0.07,0.09 0.1,0.16 0.03,0.07 0.06,0.16 0.08,0.28l0.39 0 0 -0.92 -2.57 0 0 0.35 0.12 0c0.08,0 0.14,0.01 0.16,0.03 0.03,0.03 0.04,0.08 0.04,0.18l0 1.34 0 0.01c0,0.09 -0.01,0.15 -0.04,0.17 -0.02,0.02 -0.08,0.03 -0.16,0.03l-0.12 0 0 0.34 0.26 0c-0.01,0.02 -0.02,0.04 -0.03,0.06 0,0.01 -0.01,0.03 -0.02,0.04 -1.13,2.41 -3.54,3.88 -6.09,3.88l0 0.64c2.73,0 5.33,-1.54 6.59,-4.09zm-3.38 -1.08l0 -1.34c0,-0.1 -0.01,-0.16 -0.03,-0.18 -0.03,-0.02 -0.08,-0.03 -0.17,-0.03l-0.12 0 0 -0.35 1.68 0c0.3,0 0.53,0.05 0.67,0.16 0.15,0.1 0.22,0.25 0.22,0.45 0,0.14 -0.04,0.26 -0.13,0.35 -0.09,0.1 -0.22,0.16 -0.39,0.19 0.17,0.02 0.28,0.08 0.34,0.16 0.06,0.08 0.09,0.26 0.09,0.56 0,0.08 0.01,0.14 0.02,0.18 0.02,0.03 0.04,0.05 0.08,0.05 0.03,0 0.05,-0.02 0.07,-0.06 0.02,-0.04 0.02,-0.11 0.02,-0.19 0,-0.01 0,-0.02 0,-0.04 0,-0.02 0,-0.04 0,-0.05l0.25 0c0,0.01 0,0.03 0,0.05 0,0.02 0,0.04 0,0.05 0,0.23 -0.04,0.4 -0.14,0.5 -0.09,0.1 -0.24,0.15 -0.45,0.15 -0.23,0 -0.39,-0.04 -0.49,-0.14 -0.1,-0.09 -0.15,-0.24 -0.15,-0.44l0 -0.2c0,-0.17 -0.02,-0.27 -0.07,-0.32 -0.04,-0.04 -0.13,-0.06 -0.27,-0.06l-0.22 0 0 0.55c0,0.09 0.02,0.15 0.04,0.17 0.02,0.03 0.08,0.04 0.16,0.04l0.14 0 0 0.34 -1.47 0 0 -0.34 0.12 0c0.09,0 0.14,-0.01 0.17,-0.04 0.02,-0.02 0.03,-0.08 0.03,-0.17zm0.81 -0.88l0.21 0c0.15,0 0.26,-0.03 0.32,-0.08 0.06,-0.05 0.09,-0.13 0.09,-0.24 0,-0.12 -0.03,-0.21 -0.08,-0.26 -0.06,-0.05 -0.16,-0.07 -0.3,-0.07l-0.24 0 0 0.65zm6.18 -0.72c-0.16,0 -0.28,0.08 -0.36,0.22 -0.07,0.15 -0.11,0.38 -0.11,0.7 0,0.33 0.04,0.57 0.11,0.72 0.08,0.14 0.2,0.21 0.36,0.21 0.17,0 0.29,-0.07 0.36,-0.21 0.08,-0.15 0.11,-0.38 0.11,-0.71 0,-0.32 -0.03,-0.56 -0.11,-0.71 -0.07,-0.14 -0.19,-0.22 -0.36,-0.22zm-1.42 0.93c0,-0.4 0.13,-0.72 0.38,-0.95 0.25,-0.23 0.6,-0.35 1.04,-0.35 0.44,0 0.79,0.12 1.04,0.35 0.25,0.23 0.38,0.55 0.38,0.95 0,0.41 -0.13,0.72 -0.38,0.95 -0.25,0.23 -0.6,0.35 -1.04,0.35 -0.45,0 -0.79,-0.12 -1.04,-0.35 -0.25,-0.23 -0.38,-0.55 -0.38,-0.95zm-4.83 -3.88c-0.14,0 -0.24,0.04 -0.31,0.13 -0.07,0.1 -0.11,0.23 -0.11,0.4l0 0.01 -0.36 0 0 -0.93 2.58 0 0 0.93 -0.36 0 0 -0.01c0,-0.17 -0.04,-0.3 -0.11,-0.39 -0.07,-0.1 -0.18,-0.14 -0.31,-0.14l-0.11 0 0 1.51c0,0.09 0.01,0.15 0.04,0.17 0.02,0.03 0.08,0.04 0.17,0.04l0.2 0 0 0.34 -1.61 0 0 -0.34 0.19 0c0.08,0 0.14,-0.01 0.16,-0.03 0.03,-0.02 0.04,-0.08 0.04,-0.18l0 -1.51 -0.1 0z"/>
 </g>
</svg>
